<svg xmlns="http://www.w3.org/2000/svg" xmlns:xlink="http://www.w3.org/1999/xlink" version="1.1" id="ARDA_Logo_Ru_Cur" x="0px" y="0px" viewBox="0 0 366 175" style="background: none;" xml:space="preserve" fill="transparent" width="366" height="174.9846" class="logo-controlled"> <rect id="Прямоугольник_11589" data-name="Прямоугольник 11589" width="366" height="175" transform="translate(641 2412)" fill="none"></rect> <path id="Контур_63987" class="st1 logo__title" d="M303.2,65.2l13.2,37.2h-26.1L303.2,65.2z M326.8,130.1H346l-42.8-110l-42.6,110h19.4  l4.5-12.4h37.8L326.8,130.1z M208.5,112.7v-72c0,0,44.3-6.8,44.3,36C252.8,118.9,208.5,112.7,208.5,112.7z M190.5,23.2v106.9h18  c26.5,0,62.4-7.7,62.4-53.5c0-47.4-36.4-53.4-62.4-53.4H190.5z M130.4,41h14.3c0,0,17.8,0,17.8,13.4c0,10.5-10.8,12.8-15.5,13.4  L130.4,41z M186,130.1L157,83.6c10.3-2.9,23.4-10.3,23.4-29.2c0-31.2-35.6-31.2-35.6-31.2h-35.6V41L126,67.7h-16.8v62.4H127V85.6  h10.3l27.9,44.5H186z M62.8,65.2l13,37.2h-26L62.8,65.2z M86.3,130.1h19.4l-42.8-110l-42.6,110h19.2l4.6-12.4h37.6L86.3,130.1z" data-name="logo__title" fill="#f2f2f2"></path> <path id="Контур_64018" class="st2 logo__slogan" d="M137.3,142.6c-0.7-0.3-1.5-0.5-2.5-0.5H130v13h1.7V150h3.1c1,0,1.8-0.2,2.5-0.5  c0.7-0.3,1.2-0.8,1.5-1.3c0.4-0.6,0.5-1.3,0.5-2.1c0-0.8-0.2-1.5-0.5-2C138.5,143.4,138,142.9,137.3,142.6z M137.4,147.3  c-0.2,0.4-0.5,0.7-0.9,0.9c-0.4,0.2-1,0.3-1.6,0.3h-3.1v-5.1h3.1c0.7,0,1.2,0.1,1.6,0.4c0.4,0.2,0.7,0.5,0.9,0.9  c0.2,0.4,0.3,0.8,0.3,1.3C137.7,146.5,137.6,147,137.4,147.3z M262.5,141.3h1.7V155h-1.7V141.3z M196.4,145.4h1.7v9.6h-1.7v-7  l-4.4,7h-1.6v-9.6h1.6v7L196.4,145.4z M177.1,145.4h1.7v9.6h-1.7v-7l-4.4,7H171v-9.6h1.6v7L177.1,145.4z M110.9,145.4h1.7v9.6h-1.7  v-7l-4.5,7h-1.6v-9.6h1.6v7L110.9,145.4z M43.8,150v0.4c0,0.4,0,0.8,0.1,1.2c0.1,0.4,0.2,0.8,0.4,1.1c0.2,0.3,0.5,0.6,0.8,0.8  c0.4,0.2,0.8,0.3,1.3,0.3c0.4,0,0.8-0.1,1.1-0.2c0.3-0.2,0.6-0.4,0.8-0.7c0.2-0.3,0.3-0.6,0.4-1h1.6c0,0.6-0.2,1.1-0.6,1.6  c-0.3,0.5-0.8,0.9-1.4,1.2c-0.6,0.3-1.2,0.4-1.9,0.4c-0.7,0-1.4-0.1-1.9-0.4c-0.5-0.2-1-0.6-1.3-1.1c-0.3-0.4-0.6-1-0.8-1.5  c-0.2-0.6-0.3-1.2-0.3-1.9V150c0-0.6,0.1-1.3,0.3-1.8c0.2-0.6,0.4-1.1,0.8-1.5c0.4-0.4,0.8-0.8,1.3-1.1c0.5-0.2,1.2-0.4,1.9-0.4  c0.8,0,1.4,0.2,2,0.5c0.6,0.3,1,0.7,1.3,1.2c0.3,0.5,0.5,1.1,0.5,1.8h-1.6c0-0.4-0.1-0.8-0.3-1.1c-0.2-0.3-0.5-0.6-0.8-0.8  c-0.3-0.2-0.7-0.3-1.1-0.3c-0.5,0-0.9,0.1-1.3,0.3c-0.3,0.2-0.6,0.5-0.8,0.8c-0.2,0.3-0.3,0.7-0.4,1.1  C43.9,149.2,43.8,149.6,43.8,150z M34.3,150v0.4c0,0.4,0,0.8,0.1,1.2c0.1,0.4,0.2,0.8,0.4,1.1c0.2,0.3,0.5,0.6,0.8,0.8  c0.4,0.2,0.8,0.3,1.3,0.3c0.4,0,0.8-0.1,1.1-0.2c0.3-0.2,0.6-0.4,0.8-0.7c0.2-0.3,0.3-0.6,0.4-1h1.6c0,0.6-0.2,1.1-0.6,1.6  c-0.3,0.5-0.8,0.9-1.4,1.2c-0.6,0.3-1.2,0.4-1.9,0.4c-0.7,0-1.4-0.1-1.9-0.4c-0.5-0.2-1-0.6-1.3-1.1c-0.3-0.4-0.6-1-0.8-1.5  c-0.2-0.6-0.3-1.2-0.3-1.9V150c0-0.6,0.1-1.3,0.3-1.8c0.2-0.6,0.4-1.1,0.8-1.5c0.4-0.4,0.8-0.8,1.3-1.1c0.5-0.2,1.2-0.4,1.9-0.4  c0.8,0,1.4,0.2,2,0.5c0.6,0.3,1,0.7,1.3,1.2c0.3,0.5,0.5,1.1,0.5,1.8h-1.6c0-0.4-0.1-0.8-0.3-1.1c-0.2-0.3-0.5-0.6-0.8-0.8  c-0.3-0.2-0.7-0.3-1.1-0.3c-0.5,0-0.9,0.1-1.3,0.3c-0.3,0.2-0.6,0.5-0.8,0.8c-0.2,0.3-0.3,0.7-0.4,1.1  C34.3,149.2,34.3,149.6,34.3,150z M59.3,146.6c-0.4-0.5-0.9-0.8-1.4-1c-0.5-0.2-1.1-0.4-1.8-0.4c-0.7,0-1.3,0.1-1.8,0.4  c-0.5,0.2-1,0.6-1.4,1c-0.4,0.4-0.7,1-0.9,1.6c-0.2,0.6-0.3,1.2-0.3,1.9v0.2c0,0.7,0.1,1.3,0.3,1.9c0.2,0.6,0.5,1.1,0.9,1.6  c0.4,0.4,0.9,0.8,1.4,1c0.5,0.2,1.2,0.4,1.8,0.4c0.7,0,1.3-0.1,1.8-0.4c0.5-0.2,1-0.6,1.4-1s0.7-1,0.9-1.6c0.2-0.6,0.3-1.2,0.3-1.9  v-0.2c0-0.7-0.1-1.3-0.3-1.9C60,147.6,59.7,147.1,59.3,146.6z M58.8,150.3c0,0.5-0.1,0.9-0.2,1.4c-0.1,0.4-0.3,0.8-0.5,1.1  c-0.2,0.3-0.5,0.6-0.9,0.8c-0.3,0.2-0.7,0.3-1.2,0.3c-0.5,0-0.8-0.1-1.2-0.3c-0.3-0.2-0.6-0.5-0.9-0.8c-0.2-0.3-0.4-0.7-0.5-1.1  c-0.1-0.4-0.2-0.9-0.2-1.4v-0.2c0-0.5,0-0.9,0.2-1.3c0.1-0.4,0.3-0.8,0.5-1.1c0.2-0.3,0.5-0.6,0.9-0.8c0.3-0.2,0.7-0.3,1.2-0.3  c0.5,0,0.9,0.1,1.2,0.3c0.4,0.2,0.6,0.5,0.9,0.8c0.2,0.3,0.4,0.7,0.5,1.1c0.1,0.4,0.2,0.9,0.2,1.3V150.3z M79.6,145.4h1.7v9.6h-1.7  v-7l-4.5,7h-1.6v-9.6h1.6v7L79.6,145.4z M320.2,150v0.4c0,0.4,0,0.8,0.1,1.2c0.1,0.4,0.2,0.8,0.4,1.1c0.2,0.3,0.5,0.6,0.8,0.8  c0.3,0.2,0.8,0.3,1.3,0.3c0.4,0,0.8-0.1,1.1-0.2c0.3-0.2,0.6-0.4,0.8-0.7c0.2-0.3,0.3-0.6,0.4-1h1.6c0,0.6-0.2,1.1-0.6,1.6  c-0.4,0.5-0.8,0.9-1.4,1.2c-0.6,0.3-1.2,0.4-1.9,0.4c-0.7,0-1.4-0.1-1.9-0.4c-0.5-0.2-1-0.6-1.3-1.1c-0.3-0.4-0.6-1-0.8-1.5  c-0.2-0.6-0.3-1.2-0.3-1.9V150c0-0.6,0.1-1.3,0.3-1.8c0.2-0.6,0.4-1.1,0.8-1.5c0.4-0.4,0.8-0.8,1.3-1.1c0.5-0.2,1.2-0.4,1.9-0.4  c0.8,0,1.4,0.2,2,0.5c0.6,0.3,1,0.7,1.3,1.2c0.3,0.5,0.5,1.1,0.5,1.8h-1.6c0-0.4-0.1-0.8-0.3-1.1c-0.2-0.3-0.5-0.6-0.8-0.8  c-0.3-0.2-0.7-0.3-1.2-0.3c-0.5,0-0.9,0.1-1.3,0.3c-0.3,0.2-0.6,0.5-0.8,0.8c-0.2,0.3-0.3,0.7-0.4,1.1  C320.3,149.2,320.2,149.6,320.2,150z M297.5,146.6c-0.3-0.4-0.7-0.8-1.2-1c-0.5-0.2-1.1-0.4-1.8-0.4c-0.5,0-1.1,0.1-1.6,0.3  c-0.5,0.2-1,0.5-1.3,1c-0.4,0.4-0.7,0.9-1,1.6c-0.2,0.6-0.3,1.3-0.3,2.1v0.4c0,0.7,0.1,1.3,0.3,1.9c0.2,0.6,0.5,1.1,0.9,1.5  c0.4,0.4,0.9,0.7,1.4,1c0.5,0.2,1.2,0.3,1.8,0.3c0.6,0,1.2-0.1,1.6-0.3c0.5-0.2,0.9-0.4,1.2-0.7c0.3-0.3,0.6-0.6,0.8-0.9l-1-0.8  c-0.3,0.4-0.7,0.7-1.1,1c-0.4,0.2-0.9,0.4-1.5,0.4c-0.5,0-0.9-0.1-1.2-0.3c-0.4-0.2-0.7-0.4-0.9-0.7c-0.2-0.3-0.4-0.7-0.6-1.1  c-0.1-0.4-0.2-0.8-0.2-1.2h6.5V150c0-0.7-0.1-1.3-0.2-1.9C298.1,147.5,297.8,147,297.5,146.6z M296.8,149.3H292  c0-0.2,0.1-0.5,0.1-0.7c0.1-0.4,0.3-0.8,0.5-1.1c0.2-0.3,0.5-0.5,0.8-0.7c0.3-0.2,0.7-0.2,1-0.2c0.6,0,1,0.1,1.3,0.4  c0.3,0.3,0.6,0.6,0.7,1c0.2,0.4,0.2,0.8,0.3,1.2V149.3z M227.4,145.4h1.7v9.6h-1.7V145.4z M229,142.2c0.2,0.2,0.2,0.4,0.2,0.7  c0,0.2-0.1,0.5-0.2,0.7c-0.2,0.2-0.4,0.3-0.7,0.3s-0.6-0.1-0.7-0.3c-0.2-0.2-0.2-0.4-0.2-0.7c0-0.3,0.1-0.5,0.2-0.7  c0.2-0.2,0.4-0.3,0.7-0.3S228.8,142,229,142.2z M283.3,145.4h6.1v1.4H285v8.3h-1.6V145.4z M243.7,142.2c0.2,0.2,0.3,0.4,0.3,0.7  c0,0.2-0.1,0.5-0.3,0.7c-0.2,0.2-0.4,0.3-0.7,0.3c-0.3,0-0.6-0.1-0.7-0.3c-0.2-0.2-0.2-0.4-0.2-0.7c0-0.3,0.1-0.5,0.2-0.7  c0.2-0.2,0.4-0.3,0.7-0.3C243.3,141.9,243.5,142,243.7,142.2z M242.1,145.4h1.7v9.6h-1.7V145.4z M345.3,151.2  c-0.2-0.3-0.5-0.6-0.8-0.8c-0.2-0.1-0.5-0.2-0.8-0.3c0.3-0.1,0.6-0.3,0.9-0.5s0.4-0.4,0.5-0.7c0.1-0.3,0.2-0.5,0.2-0.8  c0-0.4-0.1-0.8-0.3-1.2c-0.2-0.3-0.5-0.6-0.8-0.8c-0.3-0.2-0.8-0.4-1.2-0.5c-0.5-0.1-1-0.2-1.6-0.2h-3.8v9.6h4.4  c0.6,0,1.1-0.1,1.6-0.2c0.5-0.1,0.8-0.3,1.2-0.5c0.3-0.2,0.6-0.5,0.7-0.9c0.2-0.3,0.3-0.7,0.3-1.2  C345.6,151.9,345.5,151.5,345.3,151.2z M339.2,146.7h2.1c0.4,0,0.7,0,1,0.1c0.3,0.1,0.5,0.1,0.7,0.3c0.2,0.1,0.3,0.3,0.4,0.4  c0.1,0.2,0.2,0.4,0.2,0.6c0,0.3-0.1,0.5-0.3,0.8c-0.2,0.2-0.4,0.3-0.8,0.5c-0.3,0.1-0.8,0.1-1.3,0.1h-2.1V146.7z M343.7,153  c-0.2,0.2-0.4,0.4-0.7,0.5c-0.3,0.1-0.7,0.2-1.1,0.2h-2.7v-2.9h2.7c0.5,0,0.8,0.1,1.1,0.2c0.3,0.1,0.5,0.3,0.7,0.5  c0.2,0.2,0.2,0.5,0.2,0.8C343.9,152.6,343.9,152.8,343.7,153z M327.7,145.4h8.1v1.3h-3.2v8.3h-1.7v-8.3h-3.2V145.4z M310,145.4h8.1  v1.3h-3.2v8.3h-1.7v-8.3H310V145.4z M306.6,145.4h1.7v9.6h-1.7v-4.1h-4.4v4.1h-1.6v-9.6h1.6v4.2h4.4V145.4z M275.2,142.1l-5,13h1.8  l1.2-3.4h5.4l1.2,3.4h1.8l-5-13H275.2z M273.8,150.2l2.2-6l2.2,6H273.8z M259.7,152.9v-4.5c0-0.7-0.1-1.3-0.5-1.8  c-0.3-0.5-0.7-0.8-1.3-1.1c-0.5-0.2-1.2-0.4-1.8-0.4c-0.6,0-1.1,0.1-1.6,0.2c-0.5,0.2-0.9,0.4-1.2,0.7c-0.3,0.3-0.6,0.6-0.8,0.9  c-0.2,0.3-0.3,0.7-0.3,1h1.7c0-0.3,0.1-0.5,0.3-0.8c0.2-0.2,0.4-0.4,0.7-0.6c0.3-0.1,0.7-0.2,1.1-0.2c0.5,0,0.8,0.1,1.1,0.2  c0.3,0.1,0.5,0.4,0.7,0.7c0.2,0.3,0.2,0.6,0.2,1v0.8h-1.6c-0.7,0-1.3,0.1-1.8,0.2c-0.5,0.1-1,0.3-1.4,0.6c-0.4,0.3-0.7,0.6-0.9,1  c-0.2,0.4-0.3,0.8-0.3,1.4c0,0.5,0.1,1,0.4,1.5c0.3,0.4,0.6,0.8,1.1,1c0.5,0.3,1.1,0.4,1.7,0.4c0.5,0,1-0.1,1.4-0.3  c0.4-0.2,0.8-0.4,1.1-0.7c0.1-0.1,0.2-0.2,0.2-0.2c0,0.1,0,0.2,0,0.3c0,0.3,0.1,0.6,0.2,0.8h1.7v-0.1c-0.1-0.3-0.2-0.6-0.2-0.9  C259.8,153.6,259.7,153.3,259.7,152.9z M258.1,152.3c0,0.1-0.1,0.2-0.2,0.3c-0.2,0.3-0.5,0.6-0.9,0.8c-0.4,0.2-0.8,0.3-1.3,0.3  c-0.4,0-0.7-0.1-1-0.2c-0.3-0.2-0.5-0.4-0.6-0.6c-0.1-0.2-0.2-0.5-0.2-0.8s0.1-0.6,0.2-0.8c0.1-0.2,0.3-0.4,0.6-0.6  c0.2-0.1,0.6-0.3,0.9-0.3c0.4-0.1,0.8-0.1,1.3-0.1h1.4V152.3z M250.5,153.7l0,1.3c-0.1,0-0.3,0.1-0.5,0.1c-0.2,0-0.5,0.1-0.8,0.1  c-0.4,0-0.8-0.1-1.1-0.2c-0.3-0.2-0.6-0.4-0.8-0.8c-0.2-0.4-0.3-0.9-0.3-1.5v-6h-1.8v-1.3h1.8V143h1.6v2.4h1.8v1.3h-1.8v6  c0,0.3,0.1,0.6,0.2,0.7c0.1,0.2,0.2,0.3,0.4,0.3c0.2,0.1,0.3,0.1,0.5,0.1c0.1,0,0.3,0,0.4,0C250.3,153.7,250.4,153.7,250.5,153.7z   M237.9,146.5C237.9,146.5,237.9,146.5,237.9,146.5c-0.3-0.4-0.7-0.7-1.2-0.9c-0.5-0.2-1-0.3-1.6-0.3c-0.6,0-1.1,0.1-1.6,0.4  c-0.5,0.2-0.9,0.6-1.2,1c-0.3,0.4-0.6,1-0.8,1.6c-0.2,0.6-0.3,1.3-0.3,2v0.2c0,0.7,0.1,1.3,0.3,2c0.2,0.6,0.4,1.1,0.8,1.5  c0.3,0.4,0.7,0.8,1.2,1c0.5,0.2,1,0.4,1.6,0.4c0.6,0,1.2-0.1,1.6-0.3c0.4-0.2,0.8-0.5,1.1-0.8v0.9c0,0.6-0.1,1-0.3,1.4  c-0.2,0.4-0.5,0.7-0.9,0.9c-0.4,0.2-0.8,0.3-1.4,0.3c-0.4,0-0.9-0.1-1.3-0.3c-0.4-0.2-0.9-0.5-1.3-1l-0.9,1c0.3,0.4,0.7,0.7,1.1,1  s0.9,0.4,1.3,0.5c0.4,0.1,0.8,0.2,1.2,0.2c0.8,0,1.5-0.1,2.1-0.5c0.6-0.3,1.1-0.8,1.4-1.4c0.3-0.6,0.5-1.3,0.5-2.2v-9.4H238  L237.9,146.5z M237.8,152.4c0,0.1-0.1,0.1-0.1,0.2c-0.2,0.4-0.5,0.7-0.8,0.9c-0.4,0.2-0.8,0.3-1.4,0.3c-0.5,0-0.8-0.1-1.2-0.3  c-0.3-0.2-0.6-0.4-0.8-0.8c-0.2-0.3-0.4-0.7-0.5-1.1c-0.1-0.4-0.1-0.9-0.1-1.3v-0.2c0-0.5,0.1-0.9,0.1-1.4c0.1-0.4,0.3-0.8,0.5-1.1  c0.2-0.3,0.5-0.6,0.8-0.8c0.3-0.2,0.7-0.3,1.2-0.3c0.4,0,0.8,0.1,1.1,0.2c0.3,0.1,0.6,0.3,0.8,0.6c0.2,0.2,0.3,0.4,0.4,0.6V152.4z   M223.4,143.7c-0.5-0.5-1.1-0.9-1.8-1.2c-0.7-0.3-1.5-0.4-2.3-0.4h-3.7v13h3.5c0.9,0,1.7-0.1,2.4-0.4c0.7-0.3,1.4-0.7,1.9-1.2  c0.5-0.5,0.9-1.2,1.2-1.9c0.3-0.8,0.4-1.6,0.4-2.5v-0.8c0-0.9-0.1-1.8-0.4-2.5C224.3,144.9,223.9,144.2,223.4,143.7z M223.2,149  c0,0.9-0.2,1.8-0.5,2.5c-0.3,0.7-0.8,1.2-1.4,1.6c-0.6,0.4-1.4,0.6-2.3,0.6h-1.8v-10.2h1.9c0.6,0,1.2,0.1,1.7,0.3  c0.5,0.2,0.9,0.5,1.3,0.9c0.3,0.4,0.6,0.9,0.8,1.5c0.2,0.6,0.3,1.2,0.3,2V149z M202.5,145.6c-0.5,0.1-0.8,0.3-1.2,0.6  c-0.3,0.3-0.5,0.6-0.7,0.9c-0.2,0.4-0.2,0.8-0.2,1.2c0,0.4,0.1,0.8,0.2,1.2c0.2,0.3,0.4,0.7,0.7,0.9c0.3,0.2,0.6,0.4,1,0.6l-2.4,4  h1.8l2.3-3.8h2.5v3.8h1.6v-9.6h-4C203.5,145.4,203,145.5,202.5,145.6z M206.5,149.9h-2.6c-0.4,0-0.8-0.1-1-0.2  c-0.3-0.2-0.5-0.4-0.6-0.6c-0.1-0.2-0.2-0.5-0.2-0.8c0-0.3,0.1-0.5,0.2-0.8c0.1-0.2,0.3-0.5,0.6-0.6c0.3-0.2,0.7-0.2,1.2-0.2h2.4  V149.9z M180.5,145.4h8.1v1.3h-3.2v8.3h-1.7v-8.3h-3.2V145.4z M167.5,150.4c-0.2-0.1-0.5-0.2-0.8-0.3c0.3-0.1,0.6-0.3,0.8-0.5  c0.2-0.2,0.4-0.4,0.5-0.7c0.1-0.3,0.2-0.5,0.2-0.8c0-0.4-0.1-0.8-0.3-1.2c-0.2-0.3-0.4-0.6-0.8-0.8c-0.3-0.2-0.8-0.4-1.3-0.5  c-0.5-0.1-1-0.2-1.6-0.2h-3.8v9.6h4.4c0.6,0,1.1-0.1,1.5-0.2c0.5-0.1,0.8-0.3,1.2-0.5c0.3-0.2,0.6-0.5,0.7-0.9  c0.2-0.3,0.3-0.7,0.3-1.2c0-0.4-0.1-0.8-0.3-1.1C168.2,150.9,167.9,150.6,167.5,150.4z M162.2,146.7h2.1c0.4,0,0.7,0,1,0.1  c0.3,0.1,0.5,0.1,0.7,0.3s0.3,0.3,0.4,0.4c0.1,0.2,0.1,0.4,0.1,0.6c0,0.3-0.1,0.5-0.3,0.8c-0.2,0.2-0.4,0.3-0.8,0.5  c-0.3,0.1-0.8,0.1-1.3,0.1h-2.1V146.7z M166.8,153c-0.2,0.2-0.4,0.4-0.7,0.5c-0.3,0.1-0.7,0.2-1.1,0.2h-2.7v-2.9h2.7  c0.5,0,0.8,0.1,1.1,0.2c0.3,0.1,0.5,0.3,0.7,0.5c0.1,0.2,0.2,0.5,0.2,0.8C167,152.6,166.9,152.8,166.8,153z M158,151.3  c0.2,0.3,0.2,0.7,0.2,1.1c0,0.5-0.1,0.8-0.3,1.2c-0.2,0.4-0.4,0.7-0.8,0.9c-0.3,0.2-0.7,0.4-1.2,0.6c-0.5,0.1-1,0.2-1.5,0.2  c-0.6,0-1.2-0.1-1.8-0.3c-0.6-0.2-1.1-0.5-1.5-1c-0.4-0.4-0.6-1-0.6-1.7h1.7c0,0.3,0.1,0.6,0.3,0.8c0.2,0.3,0.4,0.5,0.8,0.6  c0.3,0.2,0.7,0.2,1.2,0.2c0.5,0,0.8-0.1,1.2-0.2s0.5-0.3,0.7-0.6c0.2-0.2,0.2-0.5,0.2-0.8c0-0.4-0.1-0.7-0.2-0.9  c-0.1-0.2-0.4-0.4-0.7-0.5c-0.3-0.1-0.7-0.2-1.1-0.2H153v-1.4h1.6c0.5,0,0.8-0.1,1.1-0.2c0.3-0.1,0.5-0.3,0.6-0.5  c0.1-0.2,0.2-0.5,0.2-0.7c0-0.2-0.1-0.5-0.2-0.7c-0.1-0.2-0.3-0.4-0.6-0.5c-0.3-0.1-0.7-0.2-1.1-0.2c-0.4,0-0.7,0.1-1,0.2  c-0.3,0.1-0.6,0.3-0.7,0.5s-0.3,0.5-0.3,0.8h-1.6c0-0.6,0.2-1.1,0.5-1.5c0.3-0.4,0.8-0.8,1.3-1c0.6-0.2,1.2-0.3,1.8-0.3  c0.6,0,1.1,0.1,1.5,0.2c0.5,0.1,0.8,0.3,1.1,0.5c0.3,0.2,0.5,0.5,0.7,0.9c0.2,0.3,0.2,0.8,0.2,1.2c0,0.3-0.1,0.6-0.2,0.9  c-0.2,0.3-0.4,0.5-0.7,0.8c-0.2,0.1-0.4,0.2-0.6,0.3c0.3,0.1,0.6,0.2,0.8,0.4C157.7,150.7,157.9,150.9,158,151.3z M148.5,152.9v-4.5  c0-0.7-0.2-1.3-0.5-1.8c-0.3-0.5-0.7-0.8-1.3-1.1c-0.5-0.2-1.2-0.4-1.9-0.4c-0.6,0-1.1,0.1-1.6,0.2c-0.5,0.2-0.9,0.4-1.2,0.7  c-0.3,0.3-0.6,0.6-0.8,0.9c-0.2,0.3-0.3,0.7-0.3,1h1.7c0-0.3,0.1-0.5,0.3-0.8c0.2-0.2,0.4-0.4,0.7-0.6s0.7-0.2,1.1-0.2  c0.5,0,0.8,0.1,1.1,0.2c0.3,0.1,0.5,0.4,0.7,0.7c0.2,0.3,0.2,0.6,0.2,1v0.8h-1.6c-0.7,0-1.2,0.1-1.8,0.2c-0.5,0.1-1,0.3-1.4,0.6  c-0.4,0.3-0.7,0.6-0.9,1c-0.2,0.4-0.3,0.8-0.3,1.4c0,0.5,0.1,1,0.4,1.5c0.3,0.4,0.7,0.8,1.1,1c0.5,0.3,1.1,0.4,1.7,0.4  c0.5,0,1-0.1,1.4-0.3c0.4-0.2,0.8-0.4,1.1-0.7c0.1-0.1,0.2-0.2,0.3-0.2c0,0.1,0,0.2,0,0.3c0.1,0.3,0.1,0.6,0.2,0.8h1.7v-0.1  c-0.1-0.3-0.2-0.6-0.3-0.9C148.6,153.6,148.5,153.3,148.5,152.9z M146.9,152.3c-0.1,0.1-0.1,0.2-0.2,0.4c-0.2,0.3-0.5,0.6-0.9,0.8  c-0.4,0.2-0.8,0.3-1.3,0.3c-0.4,0-0.8-0.1-1-0.2c-0.3-0.2-0.5-0.4-0.6-0.6c-0.1-0.2-0.2-0.5-0.2-0.8s0.1-0.6,0.2-0.8  c0.1-0.2,0.3-0.4,0.6-0.6c0.2-0.1,0.6-0.3,0.9-0.3c0.4-0.1,0.8-0.1,1.3-0.1h1.4V152.3z M117,145.6c-0.5,0.1-0.8,0.3-1.2,0.6  c-0.3,0.3-0.5,0.6-0.7,0.9c-0.2,0.4-0.2,0.8-0.2,1.2c0,0.4,0.1,0.8,0.2,1.2c0.1,0.3,0.4,0.7,0.7,0.9c0.3,0.2,0.6,0.4,1,0.6l-2.4,4  h1.8l2.3-3.8h2.5v3.8h1.6v-9.6h-4C118,145.4,117.5,145.5,117,145.6z M121,149.9h-2.6c-0.4,0-0.8-0.1-1-0.2c-0.3-0.2-0.5-0.4-0.6-0.6  c-0.1-0.2-0.2-0.5-0.2-0.8c0-0.3,0.1-0.5,0.2-0.8c0.1-0.2,0.4-0.5,0.6-0.6c0.3-0.2,0.7-0.2,1.2-0.2h2.4V149.9z M101.8,153.7h1.1  l-0.2,4.2h-1.5V155H94v-9.6h1.6v8.3h4.5v-8.3h1.7V153.7z M91.3,152.9v-4.5c0-0.7-0.2-1.3-0.5-1.8c-0.3-0.5-0.7-0.8-1.3-1.1  c-0.5-0.2-1.2-0.4-1.9-0.4c-0.6,0-1.1,0.1-1.6,0.2c-0.5,0.2-0.9,0.4-1.2,0.7c-0.3,0.3-0.6,0.6-0.8,0.9c-0.2,0.3-0.3,0.7-0.3,1h1.7  c0-0.3,0.1-0.5,0.3-0.8c0.2-0.2,0.4-0.4,0.7-0.6s0.7-0.2,1.1-0.2c0.4,0,0.8,0.1,1.1,0.2c0.3,0.1,0.5,0.4,0.7,0.7  c0.1,0.3,0.2,0.6,0.2,1v0.8H88c-0.7,0-1.3,0.1-1.8,0.2c-0.5,0.1-1,0.3-1.4,0.6c-0.4,0.3-0.7,0.6-0.9,1c-0.2,0.4-0.3,0.8-0.3,1.4  c0,0.5,0.1,1,0.4,1.5c0.3,0.4,0.7,0.8,1.1,1c0.5,0.3,1.1,0.4,1.7,0.4c0.5,0,1-0.1,1.4-0.3c0.4-0.2,0.8-0.4,1.1-0.7  c0.1-0.1,0.2-0.2,0.3-0.2c0,0.1,0,0.2,0,0.3c0,0.3,0.1,0.6,0.2,0.8h1.7v-0.1c-0.1-0.3-0.2-0.6-0.3-0.9  C91.3,153.6,91.3,153.3,91.3,152.9z M89.6,152.3c0,0.1-0.1,0.2-0.2,0.4c-0.2,0.3-0.5,0.6-0.9,0.8c-0.4,0.2-0.8,0.3-1.3,0.3  c-0.4,0-0.8-0.1-1-0.2c-0.3-0.2-0.5-0.4-0.6-0.6c-0.1-0.2-0.2-0.5-0.2-0.8s0.1-0.6,0.2-0.8c0.1-0.2,0.3-0.4,0.6-0.6  c0.2-0.1,0.6-0.3,0.9-0.3c0.4-0.1,0.8-0.1,1.2-0.1h1.4V152.3z M70.5,153.7h1.1l-0.2,4.2H70V155h-7.3v-9.6h1.6v8.3h4.4v-8.3h1.7  V153.7z M25.1,142.1l-5,13h1.8l1.2-3.4h5.4l1.2,3.4h1.8l-5-13H25.1z M23.6,150.2l2.2-6l2.2,6H23.6z" data-name="logo__slogan" fill="#f2f2f2" style="opacity: 1;"></path> </svg>